<svg xmlns="http://www.w3.org/2000/svg" width="156.606" height="143.653" viewBox="0 0 156.606 143.653">
  <g id="CWLogo" transform="translate(0.005 0)">
    <path id="Path_198" data-name="Path 198" d="M75.151,93.5s-42.632,30.275-24.1,84.955c0,0,16.373,48.811,72.907,49.737,0,0,47.884.927,68.891-39.234,0,0,32.746-51.9-19.462-95.459,0,0,41.4,52.827-2.162,92.678,0,0-43.559,43.559-94.223,0,0,0-36.932-31.847-9.166-81.344A113.046,113.046,0,0,1,75.151,93.5Z" transform="translate(-46.39 -84.541)" fill="#00f5ff"/>
    <path id="Path_199" data-name="Path 199" d="M151,65.087s18.242,68.582,23.129,72.094c0,0,2.932,3.136,4.887-.782L196.1,102.961,214.522,136.4s2.283,4.7,5.215,0c1.526,1.9,22.926-60.154,23.942-71.9l-26.225,55.453L196.1,94.929l-20.019,24.229C175.742,118.29,155.544,73.32,151,65.087Z" transform="translate(-118.686 -64.5)" fill="#40ff9f"/>
  </g>
</svg>
