<svg xmlns="http://www.w3.org/2000/svg" width="29.048" height="33.574" viewBox="0 0 29.048 33.574">
  <g id="Layer_2" data-name="Layer 2" transform="translate(-2 -9)">
    <path id="Path_203" data-name="Path 203" d="M141.41,141.049a19.844,19.844,0,0,0,12.482,0s-.96.384-.96-1.44c0,0,.96-8.257-1.536-9.314,0,0,8.641-.1,9.506-7.777,0,0,.96-5.761-2.016-8.161,0,0,1.152-3.361-.192-5.761a9.3,9.3,0,0,0-5.953,2.3,18.251,18.251,0,0,0-10.37,0,10,10,0,0,0-5.953-2.4s-1.152,3.649,0,5.761c0,0-3.553,2.976-1.92,9.026,0,0,1.056,6.625,9.025,7.009a6.479,6.479,0,0,0-1.152,2.881s-3.457,1.632-5.569-1.152c0,0-2.3-3.937-4.8-2.3a3.7,3.7,0,0,0,1.536,1.248s1.728,2.016,1.92,3.265c0,0,1.248,3.169,6.913,1.728V139.9S142.178,140.953,141.41,141.049Z" transform="translate(-130 -99.5)" fill="#cffcff" fill-rule="evenodd"/>
  </g>
</svg>
