<svg xmlns="http://www.w3.org/2000/svg" viewBox="0 0 458 454.99"><defs><style>.cls-1{fill:none;stroke:#fff;stroke-miterlimit:10;}.cls-2{fill:#212121;}.cls-3{fill:#e0f2f5;fill-rule:evenodd;}</style></defs><g id="Layer_3" data-name="Layer 3"><ellipse class="cls-1" cx="228.5" cy="234.99" rx="220" ry="219.5"/><ellipse class="cls-2" cx="229" cy="226.5" rx="229" ry="226.5"/></g><g id="Layer_2" data-name="Layer 2"><path class="cls-3" d="M242.5,523.5s64,24,130,0c0,0-10,4-10-15,0,0,10-86-16-97,0,0,90-1,99-81,0,0,10-60-21-85,0,0,12-35-2-60,0,0-30-2-62,24,0,0-54-18-108,0,0,0-24-23-62-25,0,0-12,38,0,60,0,0-37,31-20,94,0,0,11,69,94,73,0,0-12,17-12,30,0,0-36,17-58-12,0,0-24-41-50-24,0,0,4,7,16,13,0,0,18,21,20,34,0,0,13,33,72,18v41S250.5,522.5,242.5,523.5Z" transform="translate(-78 -80)"/></g></svg>