<svg xmlns="http://www.w3.org/2000/svg" width="35.547" height="35.546" viewBox="0 0 35.547 35.546">
  <path id="instagram" d="M17.775,10.9a9.1,9.1,0,1,0,6.446,2.666A9.114,9.114,0,0,0,17.775,10.9Zm0,15.038A5.924,5.924,0,1,1,23.7,20.011a5.924,5.924,0,0,1-5.926,5.924ZM29.387,10.524A2.122,2.122,0,1,1,27.265,8.4,2.122,2.122,0,0,1,29.387,10.524Zm6.036,2.158a10.52,10.52,0,0,0-2.878-7.448A10.589,10.589,0,0,0,25.1,2.363c-2.935-.167-11.731-.167-14.666,0A10.574,10.574,0,0,0,2.991,5.227,10.554,10.554,0,0,0,.12,12.673C-.047,15.608-.047,24.4.12,27.339a10.52,10.52,0,0,0,2.871,7.448,10.6,10.6,0,0,0,7.448,2.871c2.935.167,11.731.167,14.666,0a10.52,10.52,0,0,0,7.441-2.871,10.588,10.588,0,0,0,2.871-7.448c.167-2.935.167-11.723,0-14.657Zm-3.792,17.8a6,6,0,0,1-3.379,3.379c-2.34.928-7.892.707-10.477.707s-8.146.207-10.477-.707a6,6,0,0,1-3.379-3.379c-.928-2.34-.707-7.892-.707-10.478S3,11.86,3.919,9.528A6,6,0,0,1,7.3,6.155c2.34-.928,7.892-.707,10.478-.707s8.146-.207,10.477.707a6,6,0,0,1,3.379,3.379c.928,2.34.707,7.892.707,10.477S32.56,28.157,31.631,30.483Z" transform="translate(0.006 -2.237)" fill="#cffcff"/>
</svg>
