<svg xmlns="http://www.w3.org/2000/svg" width="36.042" height="35.578" viewBox="0 0 36.042 35.578">
  <path id="Icon_awesome-linkedin" data-name="Icon awesome-linkedin" d="M33.468,2.188H2.567A2.572,2.572,0,0,0,0,4.758V35.2a2.572,2.572,0,0,0,2.567,2.566h30.9A2.572,2.572,0,0,0,36.042,35.2V4.758A2.572,2.572,0,0,0,33.468,2.188Zm-22.575,30.5H5.551V15.706H10.9V32.688Zm-2.672-19.3a3.058,3.058,0,1,1,3.1-3.058A3.078,3.078,0,0,1,8.222,13.387Zm22.7,19.3H25.575V24.427c0-1.975-.04-4.5-2.775-4.5-2.783,0-3.211,2.145-3.211,4.361v8.4H14.247V15.706h5.124V18.03h.073A5.644,5.644,0,0,1,24.5,15.29c5.407,0,6.412,3.518,6.412,8.094Z" transform="translate(0 -2.188)" fill="#cffcff"/>
</svg>
